<svg width="140" height="140" viewBox="0 0 140 140" fill="none" xmlns="http://www.w3.org/2000/svg">
<path d="M70 11.6667C62.3396 11.6667 54.7541 13.1755 47.6768 16.107C40.5995 19.0386 34.1689 23.3354 28.7521 28.7521C17.8125 39.6917 11.6667 54.5291 11.6667 70C11.6667 95.7834 28.4083 117.658 51.5667 125.417C54.4833 125.883 55.4167 124.075 55.4167 122.5V112.642C39.2583 116.142 35.8167 104.825 35.8167 104.825C33.1333 98.0584 29.3417 96.25 29.3417 96.25C24.0333 92.6334 29.75 92.75 29.75 92.75C35.5833 93.1584 38.675 98.7584 38.675 98.7584C43.75 107.625 52.325 105 55.65 103.6C56.175 99.8084 57.6917 97.2417 59.325 95.7834C46.375 94.325 32.7833 89.3084 32.7833 67.0833C32.7833 60.6083 35 55.4167 38.7917 51.275C38.2083 49.8167 36.1667 43.75 39.375 35.875C39.375 35.875 44.275 34.3 55.4167 41.825C60.025 40.5417 65.0417 39.9 70 39.9C74.9583 39.9 79.975 40.5417 84.5833 41.825C95.725 34.3 100.625 35.875 100.625 35.875C103.833 43.75 101.792 49.8167 101.208 51.275C105 55.4167 107.217 60.6083 107.217 67.0833C107.217 89.3667 93.5667 94.2667 80.5584 95.725C82.6584 97.5334 84.5833 101.092 84.5833 106.517V122.5C84.5833 124.075 85.5167 125.942 88.4917 125.417C111.65 117.6 128.333 95.7834 128.333 70C128.333 62.3396 126.825 54.7541 123.893 47.6768C120.961 40.5995 116.665 34.1689 111.248 28.7521C105.831 23.3354 99.4005 19.0386 92.3232 16.107C85.2459 13.1755 77.6605 11.6667 70 11.6667Z" fill="#3388BB"/>
</svg>
