<svg width="140" height="140" viewBox="0 0 140 140" fill="none" xmlns="http://www.w3.org/2000/svg">
<path d="M45.5 11.6667H94.5C113.167 11.6667 128.333 26.8333 128.333 45.5V94.5C128.333 103.473 124.769 112.079 118.424 118.424C112.079 124.769 103.473 128.333 94.5 128.333H45.5C26.8333 128.333 11.6667 113.167 11.6667 94.5V45.5C11.6667 36.5268 15.2312 27.9212 21.5762 21.5762C27.9212 15.2312 36.5268 11.6667 45.5 11.6667ZM44.3333 23.3333C38.7638 23.3333 33.4224 25.5458 29.4841 29.4841C25.5458 33.4224 23.3333 38.7638 23.3333 44.3333V95.6667C23.3333 107.275 32.725 116.667 44.3333 116.667H95.6667C101.236 116.667 106.578 114.454 110.516 110.516C114.454 106.578 116.667 101.236 116.667 95.6667V44.3333C116.667 32.725 107.275 23.3333 95.6667 23.3333H44.3333ZM100.625 32.0833C102.559 32.0833 104.414 32.8516 105.781 34.219C107.148 35.5865 107.917 37.4411 107.917 39.375C107.917 41.3089 107.148 43.1635 105.781 44.531C104.414 45.8984 102.559 46.6667 100.625 46.6667C98.6911 46.6667 96.8365 45.8984 95.469 44.531C94.1016 43.1635 93.3333 41.3089 93.3333 39.375C93.3333 37.4411 94.1016 35.5865 95.469 34.219C96.8365 32.8516 98.6911 32.0833 100.625 32.0833ZM70 40.8333C77.7355 40.8333 85.1541 43.9062 90.6239 49.3761C96.0938 54.8459 99.1667 62.2645 99.1667 70C99.1667 77.7355 96.0938 85.1541 90.6239 90.6239C85.1541 96.0938 77.7355 99.1667 70 99.1667C62.2645 99.1667 54.8459 96.0938 49.3761 90.6239C43.9062 85.1541 40.8333 77.7355 40.8333 70C40.8333 62.2645 43.9062 54.8459 49.3761 49.3761C54.8459 43.9062 62.2645 40.8333 70 40.8333ZM70 52.5C65.3587 52.5 60.9075 54.3437 57.6256 57.6256C54.3437 60.9075 52.5 65.3587 52.5 70C52.5 74.6413 54.3437 79.0925 57.6256 82.3744C60.9075 85.6563 65.3587 87.5 70 87.5C74.6413 87.5 79.0925 85.6563 82.3744 82.3744C85.6563 79.0925 87.5 74.6413 87.5 70C87.5 65.3587 85.6563 60.9075 82.3744 57.6256C79.0925 54.3437 74.6413 52.5 70 52.5Z" fill="#3388BB"/>
</svg>
